<?xml version="1.0" encoding="utf-8"?>
<!-- Generator: Adobe Illustrator 18.1.1, SVG Export Plug-In . SVG Version: 6.00 Build 0)  -->
<!DOCTYPE svg PUBLIC "-//W3C//DTD SVG 1.1//EN" "http://www.w3.org/Graphics/SVG/1.1/DTD/svg11.dtd">
<svg version="1.1" id="Layer_1" xmlns="http://www.w3.org/2000/svg" xmlns:xlink="http://www.w3.org/1999/xlink" x="0px" y="0px"
	 viewBox="0 0 50 50" enable-background="new 0 0 50 50" xml:space="preserve">
<g>
	<path d="M43.9,39.7c1.2,1.2,1.2,3,0,4.2l0,0c-1.2,1.2-3,1.2-4.2,0L6.1,10.3c-1.2-1.2-1.2-3,0-4.2l0,0c1.2-1.2,3-1.2,4.2,0
		L43.9,39.7z"/>
</g>
<g>
	<path d="M10.3,43.9c-1.2,1.2-3,1.2-4.2,0l0,0c-1.2-1.2-1.2-3,0-4.2L39.7,6.1c1.2-1.2,3-1.2,4.2,0l0,0c1.2,1.2,1.2,3,0,4.2
		L10.3,43.9z"/>
</g>
</svg>
